STARTFONT 2.3
FONT -FontForge-Satisfy-Book-R-Normal--16-160-72-72-P-69-ISO10646-1
SIZE 16 72 72  4
FONTBOUNDINGBOX 19 23 -4 -8
COMMENT "Generated by fontforge, http://fontforge.sourceforge.net"
COMMENT "Copyright (c) 2011 by Font Diner, Inc. All rights reserved."
STARTPROPERTIES 40
FOUNDRY "FontForge"
FAMILY_NAME "Satisfy"
WEIGHT_NAME "Book"
SLANT "R"
SETWIDTH_NAME "Normal"
ADD_STYLE_NAME ""
PIXEL_SIZE 16
POINT_SIZE 160
RESOLUTION_X 72
RESOLUTION_Y 72
SPACING "P"
AVERAGE_WIDTH 69
CHARSET_REGISTRY "ISO10646"
CHARSET_ENCODING "1"
FONTNAME_REGISTRY ""
CHARSET_COLLECTIONS "ISO10646-1"
BITS_PER_PIXEL 4
FONT_NAME "Satisfy-Regular"
FACE_NAME "Satisfy Regular"
COPYRIGHT "Copyright (c) 2011 by Font Diner, Inc. All rights reserved."
FONT_VERSION "1.001"
FONT_ASCENT 13
FONT_DESCENT 3
UNDERLINE_POSITION -2
UNDERLINE_THICKNESS 1
X_HEIGHT 6
CAP_HEIGHT 11
RAW_ASCENT 799
RAW_DESCENT 200
NORM_SPACE 4
RELATIVE_WEIGHT 40
RELATIVE_SETWIDTH 50
SUPERSCRIPT_X 0
SUPERSCRIPT_Y 7
SUPERSCRIPT_SIZE 10
SUBSCRIPT_X 0
SUBSCRIPT_Y 2
SUBSCRIPT_SIZE 10
AVG_LOWERCASE_WIDTH 65
AVG_UPPERCASE_WIDTH 90
ENDPROPERTIES
CHARS 227
STARTCHAR space
ENCODING 32
SWIDTH 280 0
DWIDTH 4 0
BBX 1 1 0 0
BITMAP
00
ENDCHAR
STARTCHAR exclam
ENCODING 33
SWIDTH 249 0
DWIDTH 4 0
BBX 6 13 -1 -1
BITMAP
0003B2
0009E0
000CB0
001F70
004F30
008E00
00BA00
00E600
03F200
058000
011000
3EB000
151000
ENDCHAR
STARTCHAR quotedbl
ENCODING 34
SWIDTH 249 0
DWIDTH 4 0
BBX 6 5 0 7
BITMAP
0291A1
09A6D0
0C6980
1F2D40
4C1E10
ENDCHAR
STARTCHAR numbersign
ENCODING 35
SWIDTH 417 0
DWIDTH 7 0
BBX 9 9 -1 1
BITMAP
0001D0A500
000691E000
04CEEEFC10
035E2B5100
027B4E4100
3DFCDDB300
01E1A60000
06C1E20000
0110100000
ENDCHAR
STARTCHAR dollar
ENCODING 36
SWIDTH 292 0
DWIDTH 5 0
BBX 7 13 -1 -1
BITMAP
00005100
0003D300
007B5D10
01F10D30
01F12C10
00C70000
006D0000
000D5000
47079000
78088000
1BB91000
05900000
01100000
ENDCHAR
STARTCHAR percent
ENCODING 37
SWIDTH 574 0
DWIDTH 9 0
BBX 10 13 0 -1
BITMAP
0077000192
09A8800B70
2E04B07B00
5A0793D100
4B1D3C5000
1BD6890000
0003D14200
001D49BC30
00994D0870
04E1870A60
1D50961E10
9B004DD600
3000022000
ENDCHAR
STARTCHAR ampersand
ENCODING 38
SWIDTH 460 0
DWIDTH 7 0
BBX 8 13 -1 -1
BITMAP
000019C4
0000B468
0003E1D2
0006DC70
0007F800
002DD000
01DEF000
0BC6F100
6F24F400
BA01F728
BB00DD90
5FCBEF40
03533B60
ENDCHAR
STARTCHAR quotesingle
ENCODING 39
SWIDTH 113 0
DWIDTH 2 0
BBX 3 5 0 7
BITMAP
0290
09A0
0C60
1F20
4C00
ENDCHAR
STARTCHAR parenleft
ENCODING 40
SWIDTH 234 0
DWIDTH 4 0
BBX 5 15 0 -2
BITMAP
0002C0
000C50
006A00
00E300
05C000
0B7000
1F3000
4F0000
7C0000
9A0000
A80000
A70000
880000
5B0000
060000
ENDCHAR
STARTCHAR parenright
ENCODING 41
SWIDTH 204 0
DWIDTH 3 0
BBX 6 16 -2 -2
BITMAP
000100
000470
0003C0
0001F0
0001F1
0002F1
0004E0
0007C0
000A90
000D50
003E00
008900
01E300
07A000
4D1000
620000
ENDCHAR
STARTCHAR asterisk
ENCODING 42
SWIDTH 327 0
DWIDTH 5 0
BBX 7 6 0 6
BITMAP
00065000
071D6000
1CCD8D10
01AE6400
0BC6D200
02318100
ENDCHAR
STARTCHAR plus
ENCODING 43
SWIDTH 350 0
DWIDTH 6 0
BBX 7 6 -1 3
BITMAP
00016000
0006B000
035CB620
1DBFBA40
002F1000
005B0000
ENDCHAR
STARTCHAR comma
ENCODING 44
SWIDTH 200 0
DWIDTH 3 0
BBX 3 4 -1 -2
BITMAP
0200
5F50
2D30
3700
ENDCHAR
STARTCHAR hyphen
ENCODING 45
SWIDTH 353 0
DWIDTH 6 0
BBX 7 2 -1 4
BITMAP
06899830
2A987720
ENDCHAR
STARTCHAR period
ENCODING 46
SWIDTH 213 0
DWIDTH 3 0
BBX 3 3 -1 -1
BITMAP
0210
5F80
1400
ENDCHAR
STARTCHAR slash
ENCODING 47
SWIDTH 262 0
DWIDTH 4 0
BBX 9 13 -2 -1
BITMAP
0000002910
000000B800
000004D000
00000D4000
00006B0000
0001D20000
0008900000
002E100000
00A8000000
03E1000000
0B80000000
4F20000000
2200000000
ENDCHAR
STARTCHAR zero
ENCODING 48
SWIDTH 489 0
DWIDTH 8 0
BBX 8 13 0 -1
BITMAP
0002AA10
002E79A0
00B902E0
05F101F2
0BA001F2
1F5003F1
5F2006E0
7F000AB0
7E001E60
6E006E10
3F21E600
0BCD7000
01520000
ENDCHAR
STARTCHAR one
ENCODING 49
SWIDTH 272 0
DWIDTH 4 0
BBX 4 13 0 -1
BITMAP
0028
02EE
01CB
00C7
00F4
03F0
06B0
0A80
0E40
3F00
8D00
BD00
2200
ENDCHAR
STARTCHAR two
ENCODING 50
SWIDTH 448 0
DWIDTH 7 0
BBX 8 13 -1 -1
BITMAP
000069B3
000B80AC
007E008D
009C00BA
000002F5
000009B0
00005E10
0005E300
006E3000
07D20000
3F667620
4FEDDF70
04000110
ENDCHAR
STARTCHAR three
ENCODING 51
SWIDTH 462 0
DWIDTH 7 0
BBX 8 13 0 -1
BITMAP
0029BA20
03E928D0
0AC004F1
0AD008D0
00103F50
0004E600
008FC300
00215E00
00003F10
44007D00
F901D600
9FAD8000
04630000
ENDCHAR
STARTCHAR four
ENCODING 52
SWIDTH 452 0
DWIDTH 7 0
BBX 7 13 0 -1
BITMAP
00001770
0000BEA0
0009CA60
006D1D20
05E32E00
4E406A00
EC8ADD30
7A76FB30
0003F300
0007F000
000AE000
000CD000
00032000
ENDCHAR
STARTCHAR five
ENCODING 53
SWIDTH 444 0
DWIDTH 7 0
BBX 8 13 0 -1
BITMAP
00268982
00ACBDF5
00E10050
04B00000
09613000
0D9EFA00
1FC24F00
03101F00
00004B00
7700A500
ED38C000
9FFC2000
05400000
ENDCHAR
STARTCHAR six
ENCODING 54
SWIDTH 477 0
DWIDTH 8 0
BBX 7 13 0 -1
BITMAP
00007B50
000A97D0
007C08C0
02F30420
08C27400
0EBD6E30
3FF50A80
5F700B90
6F000E60
5F005E10
2F30C800
09CBA000
00540000
ENDCHAR
STARTCHAR seven
ENCODING 55
SWIDTH 406 0
DWIDTH 7 0
BBX 8 13 0 -1
BITMAP
02789A80
0AEA88F2
041008A0
00004E10
0001D600
0008C000
002F4000
00AC0000
02F50000
09E00000
0E900000
2F700000
03000000
ENDCHAR
STARTCHAR eight
ENCODING 56
SWIDTH 444 0
DWIDTH 7 0
BBX 8 13 -1 -1
BITMAP
00004A93
0005C11D
000D501E
001F60B8
000EBAB0
0008FB10
003DDC00
02E44F40
0B900E80
1F200D80
1F102F30
0BA7D600
00452000
ENDCHAR
STARTCHAR nine
ENCODING 57
SWIDTH 462 0
DWIDTH 7 0
BBX 7 13 0 -1
BITMAP
0005A910
007C2780
03F203B0
09A003D0
0E600BD0
0F302FB0
0E40AD80
0AD99C40
01645E00
2201D700
992BC000
7FFC1000
04400000
ENDCHAR
STARTCHAR colon
ENCODING 58
SWIDTH 226 0
DWIDTH 4 0
BBX 4 6 -1 -1
BITMAP
0162
08F4
0000
0210
5F80
1400
ENDCHAR
STARTCHAR semicolon
ENCODING 59
SWIDTH 212 0
DWIDTH 3 0
BBX 4 7 -1 -2
BITMAP
0261
0BE2
0000
0200
5F50
2D30
3700
ENDCHAR
STARTCHAR less
ENCODING 60
SWIDTH 271 0
DWIDTH 4 0
BBX 6 8 -1 1
BITMAP
000023
0008D3
01AC20
1CC100
0C9000
04F300
00AB00
001200
ENDCHAR
STARTCHAR equal
ENCODING 61
SWIDTH 374 0
DWIDTH 6 0
BBX 6 5 0 3
BITMAP
000100
3EFFFB
243210
CFFEE2
310000
ENDCHAR
STARTCHAR greater
ENCODING 62
SWIDTH 250 0
DWIDTH 4 0
BBX 5 8 -1 1
BITMAP
014000
01D800
005F20
000CA0
004E80
05E600
6E4000
200000
ENDCHAR
STARTCHAR question
ENCODING 63
SWIDTH 413 0
DWIDTH 7 0
BBX 9 13 -1 -1
BITMAP
0004ACB400
009E526F30
00F7000F60
0064003F20
000000BA00
00002AC100
004CE70000
00CA000000
01F5000000
04D1000000
0110000000
2EE0000000
0630000000
ENDCHAR
STARTCHAR at
ENCODING 64
SWIDTH 648 0
DWIDTH 10 0
BBX 12 12 -1 -1
BITMAP
000001330000
0003AB77B500
005D40221B40
03E21ABDA4C0
0B70C54FB0F0
2E18902B50E1
5B0E202D02E0
6B1F11B807A0
2E1CCCE22D20
099130E5C600
008C707A4000
000130000000
ENDCHAR
STARTCHAR A
ENCODING 65
SWIDTH 552 0
DWIDTH 9 0
BBX 10 16 -2 -4
BITMAP
00000006B7
0000009B5E
000006C03D
00001E306B
00008C00A8
0000E600D6
0005F101F3
000AB004F1
002FCA9BE4
2BEF989EF5
00BD000C90
02F9000E70
07F5001F60
0DE1002F70
5B50001FA0
0000000950
ENDCHAR
STARTCHAR B
ENCODING 66
SWIDTH 607 0
DWIDTH 10 0
BBX 10 15 0 -3
BITMAP
0007DBA700
04DFB23CC0
06AF6006F3
003F1007F3
008C000CD0
00C8005F40
01F425E600
05FEFEB100
0AB640AB00
0E70004F30
3F40005F50
7F1000AF20
BD0005FA00
FA018FA100
9DDDA40000
ENDCHAR
STARTCHAR C
ENCODING 67
SWIDTH 548 0
DWIDTH 9 0
BBX 9 15 0 -3
BITMAP
00003AC900
0007E51C80
005F400AC0
02E9000DC0
08F2006F90
1EA0006B10
5F50000000
9F10000000
CE00000000
EC00000000
EB00000000
DB00005100
9E1003A000
2EB58D1000
03BD910000
ENDCHAR
STARTCHAR D
ENCODING 68
SWIDTH 632 0
DWIDTH 10 0
BBX 10 15 0 -3
BITMAP
0028BA6000
03EC87DC10
0243101CB0
006F3005F3
009F0002F6
00BC0001F8
00E90003F8
02F50005F5
05F10009F2
09C0000EA0
0D80006F30
2F4001E900
7E001CB100
DC25DA1000
5CDB400000
ENDCHAR
STARTCHAR E
ENCODING 69
SWIDTH 523 0
DWIDTH 8 0
BBX 10 15 -1 -3
BITMAP
000016AB70
0003DA20C6
001EB000B8
008F3002F5
00BE001DC0
00BF000100
004F700000
0008FD8000
01BA341000
0BB0000000
4F50000120
7F40000910
5F80006900
0CF859C100
018CD80000
ENDCHAR
STARTCHAR F
ENCODING 70
SWIDTH 585 0
DWIDTH 9 0
BBX 10 15 0 -3
BITMAP
00269BBA50
07E95337F2
3F700003F1
3FE90008A0
0372001E30
0000008B00
005677E930
06DA8CD940
01001E6000
00007F1000
0000EA0000
0005F50000
0009F10000
000DF00000
000CA00000
ENDCHAR
STARTCHAR G
ENCODING 71
SWIDTH 612 0
DWIDTH 10 0
BBX 10 15 0 -3
BITMAP
000017BA10
0002D92AA0
001DA006D0
009E1009D0
03F8004F90
0AF2005D20
1EC0000000
5F70000000
8F409CEFF1
AF10335F20
BE00007C00
AE0000D500
6F1007B000
1E705D2000
03DDB20000
ENDCHAR
STARTCHAR H
ENCODING 72
SWIDTH 649 0
DWIDTH 10 0
BBX 12 15 -1 -3
BITMAP
000046000063
0001F70006F3
0004F3000AD0
0008E0000E80
000BA0003F30
000F60007E00
003F2001BA00
009FCEEFFFA0
02DB5C43F720
00E702D7C000
03F4008E9000
06F1004F6000
0AD0004F3000
0DB0006F0000
1E7000590000
ENDCHAR
STARTCHAR I
ENCODING 73
SWIDTH 537 0
DWIDTH 9 0
BBX 11 15 -2 -3
BITMAP
00000005A600
0000008E8C00
000004F56B00
00000AE09A00
00000CA0C800
00000C81F600
00000A85F200
00000499D000
0000034DC510
005BFCBF8610
08F7107D0000
1F8000C70000
1F9003E10000
08F40B600000
006CC7000000
ENDCHAR
STARTCHAR J
ENCODING 74
SWIDTH 500 0
DWIDTH 8 0
BBX 12 15 -2 -3
BITMAP
0000038AA982
00000797EB83
00000001F500
00000005F200
00000009E000
0000000DA000
0000002F7000
0004205F4000
008F909F0000
04F910DB0000
0CA002F60000
2F2007E10000
4F000D800000
2F108C000000
06CBA1000000
ENDCHAR
STARTCHAR K
ENCODING 75
SWIDTH 497 0
DWIDTH 8 0
BBX 10 17 -1 -5
BITMAP
0001930075
0007F100F8
000CA004F5
001F500AE0
006F104F60
00AB01D900
00D71C8000
02F9D60000
08FDCC6000
09C009F100
0C9007F000
1F600BC000
4F402F6000
8F306F1000
9A106F1000
00001CC750
0000004410
ENDCHAR
STARTCHAR L
ENCODING 76
SWIDTH 492 0
DWIDTH 8 0
BBX 11 16 -2 -4
BITMAP
000000018A20
0000000CCD70
0000006F2D50
000000CB6D10
000000FCE400
004659FD3000
0018ACE00000
00000AB00000
00000E700000
00003F200000
00008B000000
0001E4000000
2CFED0000000
8D9CEC549300
286019EFB000
000000020000
ENDCHAR
STARTCHAR M
ENCODING 77
SWIDTH 733 0
DWIDTH 12 0
BBX 14 15 -2 -3
BITMAP
00000057000184
000003FD000BF8
000009DD003ED5
00000E9D00A9F2
00004F6D02E5E0
00008C7B0997B0
0000D88A1E2B70
0002F4A97A0E40
0475F1A9D43F10
0D18C0BDD07D00
5B0C90AF80AA00
881F607F50D800
885F202811F800
6CCC000002FA00
1AD30000009D40
ENDCHAR
STARTCHAR N
ENCODING 78
SWIDTH 541 0
DWIDTH 9 0
BBX 12 15 -1 -3
BITMAP
000450002A90
000EC000CCC1
003FE004F2C0
006DF008C5A0
00A8F13CDC10
00D3F13F8100
02F0E11F3000
06C0D23F0000
0990D36D0000
0D70C49A0000
2F40B6C70000
5F3099F40000
8F207EF00000
9F203FB00000
5B200A500000
ENDCHAR
STARTCHAR O
ENCODING 79
SWIDTH 567 0
DWIDTH 9 0
BBX 9 15 0 -3
BITMAP
0001AD9200
001CE7AB00
009D105F00
03F5003F30
09D0002F30
1E70002F30
4F30003F30
8E00006F10
AC00009E00
CB0000CA00
DA0002F500
CA0008D000
9C002E5000
4F21C90000
07EE700000
ENDCHAR
STARTCHAR P
ENCODING 80
SWIDTH 552 0
DWIDTH 9 0
BBX 11 15 -1 -3
BITMAP
00015ABC7000
006EF404E800
01E7E0009E00
0016B0007F10
000A7000AE00
000E4001E800
003F100AD100
007D01AD3000
00BC9D910000
00EA41000000
04F400000000
07F100000000
0CC000000000
3F7000000000
6A1000000000
ENDCHAR
STARTCHAR Q
ENCODING 81
SWIDTH 583 0
DWIDTH 9 0
BBX 9 15 0 -3
BITMAP
00007BB300
001BC36E10
00AD100C70
05F40009A0
0CC00009B0
2F70000BA0
6F30000D80
8F00002F50
8F00007F10
5F3000DA00
0AD205F300
00441DA000
1CDAFE1000
5F4ADD7000
1CE9119B40
ENDCHAR
STARTCHAR R
ENCODING 82
SWIDTH 560 0
DWIDTH 9 0
BBX 11 16 -1 -4
BITMAP
00015ABC8100
006EF503EA00
00E7F1007F10
0014D0005F30
000890008F10
000C6000DA00
001F3008E200
019F718E4000
03FEDFA20000
00DB4C600000
01F707A00000
04F405E00000
09F105F10000
1EB004F30000
3A3001FA5000
0000008D4000
ENDCHAR
STARTCHAR S
ENCODING 83
SWIDTH 474 0
DWIDTH 8 0
BBX 9 15 -1 -3
BITMAP
00006BCA20
000BD40AB0
006E2007D0
00CA000BB0
00CC001C40
007F500000
001DE30000
0002ED1000
00005F6000
00000CA000
021009A000
7F10098000
AF001E3000
6F71AA0000
09FE900000
ENDCHAR
STARTCHAR T
ENCODING 84
SWIDTH 423 0
DWIDTH 7 0
BBX 9 15 0 -3
BITMAP
1578998730
7FDBFB8940
1104F30000
0008E00000
000BA00000
000E600000
003F200000
007D000000
00AA000000
00E7000000
02F4000000
06F1000000
0AE0000000
0DB0000000
1D60000000
ENDCHAR
STARTCHAR U
ENCODING 85
SWIDTH 574 0
DWIDTH 9 0
BBX 10 15 0 -3
BITMAP
0005400076
008F4004F7
00DD0008F2
02F8000CD0
06F3001F80
0AD0004F30
0E90008E00
2F5000BA00
5F1000E600
8D0004F300
AA0008F100
C9001EE000
CA008ED000
9E46D7E000
2BDA12B200
ENDCHAR
STARTCHAR V
ENCODING 86
SWIDTH 503 0
DWIDTH 8 0
BBX 9 15 0 -3
BITMAP
0075000460
05F5000DD0
08E0004F40
0CA000AD00
0E6001F700
2F4005F200
3F200AC000
4F101E7000
4F005F2000
3F009B0000
2F10E60000
0F23E00000
0C59800000
08CE100000
01E6000000
ENDCHAR
STARTCHAR W
ENCODING 87
SWIDTH 817 0
DWIDTH 13 0
BBX 13 15 0 -3
BITMAP
00184000000A90
009E101B200EC0
00E8008F100CC0
05F200DD000DA0
09C001FA000D80
0D7002F6000F50
2F3003F2003F20
5E0006E0007D00
7C000BC000B900
8A002FB001F400
99007EB005D000
8901E7B00C7000
6C07B3D04E1000
3F9E21E7D50000
09E4008E600000
ENDCHAR
STARTCHAR X
ENCODING 88
SWIDTH 579 0
DWIDTH 9 0
BBX 12 15 -1 -3
BITMAP
005C80000195
02C3F3001CE5
06A0B800AE30
05E5AA05F400
00CFBD1E8000
00023FAC0000
00001FF30000
00001F700000
00009F400000
0004FE600000
001D8A800000
009D18A00000
04F505E00020
3EB001E73A20
4910006DB200
ENDCHAR
STARTCHAR Y
ENCODING 89
SWIDTH 532 0
DWIDTH 9 0
BBX 10 15 0 -3
BITMAP
00590004A1
00EB000CC0
04F5000F80
08F1003F40
0CB0007E00
0F7000BB00
3F3001F700
5F0008F300
7E003DE000
5F76D7B000
08B9297000
00001E2000
24009A0000
BF9BD10000
5DD9100000
ENDCHAR
STARTCHAR Z
ENCODING 90
SWIDTH 455 0
DWIDTH 7 0
BBX 10 15 -2 -3
BITMAP
0002799986
0009ECA9CD
00031000CB
00000005F4
0000001EA0
000000BD10
000008E300
00005F5000
0003E80000
001DA00000
00AD100000
04F3000000
0C80121000
3FCEFFFC00
1B8668A300
ENDCHAR
STARTCHAR bracketleft
ENCODING 91
SWIDTH 202 0
DWIDTH 3 0
BBX 6 16 -1 -2
BITMAP
000043
0006F9
000B60
001F10
005C00
009800
00D400
02F000
05B000
098000
0C4000
1F1000
4D0000
7A0000
9B1000
7B5000
ENDCHAR
STARTCHAR backslash
ENCODING 92
SWIDTH 273 0
DWIDTH 4 0
BBX 4 13 0 -1
BITMAP
3900
4E00
2F10
0F30
0C50
0A70
0890
06B0
03E0
01F2
00E6
00C9
0021
ENDCHAR
STARTCHAR bracketright
ENCODING 93
SWIDTH 216 0
DWIDTH 3 0
BBX 6 16 -2 -2
BITMAP
000133
0003DE
00005C
000089
0000B5
0000E2
0002E0
0006A0
000A70
000D30
002E00
006A00
00A600
00E200
29D000
6C5000
ENDCHAR
STARTCHAR asciicircum
ENCODING 94
SWIDTH 287 0
DWIDTH 5 0
BBX 6 7 -1 5
BITMAP
000183
000BE8
004D79
00D56B
07B05D
2E204F
110003
ENDCHAR
STARTCHAR underscore
ENCODING 95
SWIDTH 439 0
DWIDTH 7 0
BBX 9 3 -2 -1
BITMAP
0123332000
9FFFFFFF40
1210001200
ENDCHAR
STARTCHAR grave
ENCODING 96
SWIDTH 567 0
DWIDTH 9 0
BBX 3 3 4 8
BITMAP
A800
2AA0
0010
ENDCHAR
STARTCHAR a
ENCODING 97
SWIDTH 435 0
DWIDTH 7 0
BBX 10 8 -1 -1
BITMAP
0003820000
005DC90000
03E23F0000
0A904C0062
1F40990380
3F46E72A00
1EF96DB100
0210030000
ENDCHAR
STARTCHAR b
ENCODING 98
SWIDTH 415 0
DWIDTH 7 0
BBX 9 13 0 -1
BITMAP
0003000000
00AD000000
02FB000000
07F7000000
0CF2000000
2FC0000000
5F64A00210
8E18FAA810
A701F30000
B406B00000
A51D300000
5DD5000000
0310000000
ENDCHAR
STARTCHAR c
ENCODING 99
SWIDTH 363 0
DWIDTH 6 0
BBX 8 8 -1 -1
BITMAP
00168100
01BAA700
08C1F400
0E401008
2F100075
1F300870
09E9B600
00451000
ENDCHAR
STARTCHAR d
ENCODING 100
SWIDTH 483 0
DWIDTH 8 0
BBX 10 13 -1 -1
BITMAP
0000000100
0000001E70
0000005F70
0000009F50
000000DF10
000342FB00
008A9AF500
05C02FC000
0C500C4008
1F103D0074
2F13DC0760
0CEA3EB600
0020032000
ENDCHAR
STARTCHAR e
ENCODING 101
SWIDTH 372 0
DWIDTH 6 0
BBX 9 8 -1 -1
BITMAP
0004820000
007AC80000
04D1D30000
0C9B600610
1FC3005700
0F60078000
08E9B60000
0045100000
ENDCHAR
STARTCHAR f
ENCODING 102
SWIDTH 325 0
DWIDTH 5 0
BBX 9 20 -2 -8
BITMAP
0000020000
0000CE0000
0000BD0000
0000C90000
0000E50000
0003E10000
0007A00000
000C769960
006FB51000
00FA000000
00CD200000
00E8D10000
03D0A80000
07905C0000
0B604C0000
0E30990000
3E02F30000
6C2D900000
7FFA000000
1740000000
ENDCHAR
STARTCHAR g
ENCODING 103
SWIDTH 459 0
DWIDTH 7 0
BBX 10 15 -1 -8
BITMAP
0004500000
009AA8E000
05C03FA000
0B600D6024
0E301E32A1
0E50AE4B10
09FD9FA100
0034D90000
004CE40000
05D3F10000
1E35D00000
3E09900000
2E0D500000
0DBE000000
03B5000000
ENDCHAR
STARTCHAR h
ENCODING 104
SWIDTH 465 0
DWIDTH 7 0
BBX 10 12 -1 -1
BITMAP
000C900000
000F700000
003F300000
007E000000
00A9030000
00E7DF8000
02FA1B9000
06E10E5014
09903E11A2
0D607A2A20
1F307FB200
0300040000
ENDCHAR
STARTCHAR i
ENCODING 105
SWIDTH 274 0
DWIDTH 4 0
BBX 6 12 0 -1
BITMAP
001100
00D600
006100
000000
002000
0D7000
4F2000
7D0026
9801B1
A62C20
6EC200
020000
ENDCHAR
STARTCHAR j
ENCODING 106
SWIDTH 267 0
DWIDTH 4 0
BBX 10 18 -4 -7
BITMAP
0000001400
000000B900
0000004100
0000000000
0000000000
00000C9000
00001F5000
00005F1036
00009B03A0
0000C75A10
0001FC9000
0005F40000
006FC00000
04DB900000
1D4D500000
4C2F100000
4B7A000000
0BE3000000
ENDCHAR
STARTCHAR k
ENCODING 107
SWIDTH 440 0
DWIDTH 7 0
BBX 10 13 -1 -1
BITMAP
0001100000
001F800000
002F500000
004F100000
007C000000
00B6141000
00E5DF6000
03EA1C4000
06C6A60041
0A4BD60380
0E10C42B10
3D00DCB200
1300461000
ENDCHAR
STARTCHAR l
ENCODING 108
SWIDTH 218 0
DWIDTH 4 0
BBX 5 12 -1 -1
BITMAP
001D80
002F60
004F20
008D00
00BA00
00F600
03F200
07D000
0B9000
0E5000
2F2000
030000
ENDCHAR
STARTCHAR m
ENCODING 109
SWIDTH 717 0
DWIDTH 11 0
BBX 13 8 0 -1
BITMAP
00001000100000
0A58FA3DF30000
1FC69DB6F50000
5F709E23F30170
8E10C706E00A20
C902F20AB09500
F506D00AEC5000
30011001520000
ENDCHAR
STARTCHAR n
ENCODING 110
SWIDTH 461 0
DWIDTH 7 0
BBX 10 8 -1 -1
BITMAP
0000020000
00D8DF6000
03FC2D8000
06E20E5025
0A903F10A1
0D507C0A30
2F208EC500
1200152000
ENDCHAR
STARTCHAR o
ENCODING 111
SWIDTH 393 0
DWIDTH 6 0
BBX 9 8 -1 -1
BITMAP
0014200000
00DBC40010
08E05B0480
0DE45DA700
1F4CFB2000
0F11E30000
0ABD700000
0042000000
ENDCHAR
STARTCHAR p
ENCODING 112
SWIDTH 451 0
DWIDTH 7 0
BBX 11 14 -2 -7
BITMAP
000100200000
001F8CF60000
001FC2890000
005E20980330
008901E32A00
00CC7BA2B100
01FEFFCB2000
04D362300000
08A000000000
0C7000000000
1F4000000000
4F1000000000
8D0000000000
570000000000
ENDCHAR
STARTCHAR q
ENCODING 113
SWIDTH 462 0
DWIDTH 7 0
BBX 9 15 -1 -8
BITMAP
0001201000
006CA8F200
04E12FC000
0B900B8000
0F501E4020
1F507F1290
0BB7CC1A10
016589B200
0000CE3000
0002F30000
0008D00000
000EB00000
001FB00000
000AB00000
0000200000
ENDCHAR
STARTCHAR r
ENCODING 114
SWIDTH 406 0
DWIDTH 7 0
BBX 10 9 -2 -1
BITMAP
0001400000
000BF00000
001FE62000
001E8CB000
00870AA017
01C03E2092
0840B80950
1900BBB600
0100273000
ENDCHAR
STARTCHAR s
ENCODING 115
SWIDTH 351 0
DWIDTH 6 0
BBX 5 8 0 -1
BITMAP
02D900
09F300
0AD500
657B00
402F30
4A0C50
6F8A00
065000
ENDCHAR
STARTCHAR t
ENCODING 116
SWIDTH 301 0
DWIDTH 5 0
BBX 8 12 -1 -1
BITMAP
0008D000
000EC000
AABFFEC6
359F5022
00AE1000
00DA0000
01F40000
04D00081
06700650
07706900
04EC9000
00240000
ENDCHAR
STARTCHAR u
ENCODING 117
SWIDTH 468 0
DWIDTH 8 0
BBX 9 7 0 -1
BITMAP
1C408A0000
7E00E90000
B904F50180
E505D00920
F509C09500
9ED7ED5000
0220110000
ENDCHAR
STARTCHAR v
ENCODING 118
SWIDTH 427 0
DWIDTH 7 0
BBX 9 8 0 -1
BITMAP
0100030000
7D00AE0000
B901F80230
C703F89700
C60B741000
A979000000
5FB0000000
0400000000
ENDCHAR
STARTCHAR w
ENCODING 119
SWIDTH 646 0
DWIDTH 10 0
BBX 12 8 0 -1
BITMAP
010023002000
3F30D808E000
7D03F30DB004
A904C00DC793
C605702E5300
C50B90980000
9CB2BAC10000
041013000000
ENDCHAR
STARTCHAR x
ENCODING 120
SWIDTH 399 0
DWIDTH 6 0
BBX 8 8 -1 -1
BITMAP
02500320
04F23E80
00C8E900
007F9000
00BF1005
09BC5085
7C17ED50
31004100
ENDCHAR
STARTCHAR y
ENCODING 121
SWIDTH 406 0
DWIDTH 7 0
BBX 7 14 -1 -7
BITMAP
00100010
06F10BB0
08D00C90
0D802F40
1F309E00
3F15FA00
1ECDC700
0261E300
0003F000
0007C000
000B9000
000E6000
003F3000
002A0000
ENDCHAR
STARTCHAR z
ENCODING 122
SWIDTH 448 0
DWIDTH 7 0
BBX 10 14 -1 -7
BITMAP
0001454000
004FDBF100
002207A000
00002E2000
0000C70081
000BFC6940
000A38D400
0004BD6000
008B2E2000
07B07C0000
2E20D60000
6B07D00000
7C5E400000
2DE5000000
ENDCHAR
STARTCHAR braceleft
ENCODING 123
SWIDTH 243 0
DWIDTH 4 0
BBX 7 16 -1 -2
BITMAP
00000310
0002CF10
000AC400
000E3000
000E2000
000E2000
002E0000
04C60000
05D00000
00C20000
01E00000
08800000
1E100000
4E100000
2FD00000
05A00000
ENDCHAR
STARTCHAR bar
ENCODING 124
SWIDTH 253 0
DWIDTH 4 0
BBX 4 13 0 -1
BITMAP
002A
008B
00B7
00E2
03D0
0790
0A60
0E30
3F00
6C00
AA00
D700
3000
ENDCHAR
STARTCHAR braceright
ENCODING 125
SWIDTH 243 0
DWIDTH 4 0
BBX 6 16 -2 -2
BITMAP
000020
0003F6
0002BE
00003E
000079
0001E2
0006A0
000690
0003F3
001D50
005B00
007900
006A00
009900
2CF300
6B4000
ENDCHAR
STARTCHAR asciitilde
ENCODING 126
SWIDTH 329 0
DWIDTH 5 0
BBX 7 3 -1 4
BITMAP
05751240
6EACFF50
01001100
ENDCHAR
STARTCHAR uni00A0
ENCODING 160
SWIDTH 280 0
DWIDTH 4 0
BBX 1 1 0 0
BITMAP
00
ENDCHAR
STARTCHAR exclamdown
ENCODING 161
SWIDTH 249 0
DWIDTH 4 0
BBX 6 13 -1 -1
BITMAP
0004B2
000991
000120
000D40
003F10
007D00
00C900
01F600
05F300
09E000
0DB000
2F8000
150000
ENDCHAR
STARTCHAR cent
ENCODING 162
SWIDTH 322 0
DWIDTH 5 0
BBX 7 13 -1 -1
BITMAP
00002400
00007600
0009BC10
00992C40
04D18F20
0A704600
0E200000
1F000000
0E102200
0A949000
01D81000
00D00000
00100000
ENDCHAR
STARTCHAR sterling
ENCODING 163
SWIDTH 318 0
DWIDTH 5 0
BBX 7 11 -1 0
BITMAP
0003BB30
001D2590
00783B70
00B44700
00E10000
1CFB6000
07A30000
0C400000
3C122000
BDDCD100
10000000
ENDCHAR
STARTCHAR currency
ENCODING 164
SWIDTH 347 0
DWIDTH 6 0
BBX 7 6 -1 3
BITMAP
00500140
00D9BC50
00875800
00C07500
05EBE400
1A113A00
ENDCHAR
STARTCHAR yen
ENCODING 165
SWIDTH 326 0
DWIDTH 5 0
BBX 7 10 0 1
BITMAP
06100420
0D203D00
0B40B500
0776A000
03DC1000
01F30000
5CEC1000
7CD70000
3C620000
0E100000
ENDCHAR
STARTCHAR brokenbar
ENCODING 166
SWIDTH 253 0
DWIDTH 4 0
BBX 4 13 0 -1
BITMAP
002A
008B
00B7
00F3
03E0
0250
0100
0E30
3F00
6C00
AA00
D700
3000
ENDCHAR
STARTCHAR section
ENCODING 167
SWIDTH 297 0
DWIDTH 5 0
BBX 7 13 -1 -1
BITMAP
00067920
007A0880
00C40C40
007A0000
002C9000
05C3B400
0C40A600
0A86C100
01AA0000
041A6000
6B07A000
4A3C3000
02520000
ENDCHAR
STARTCHAR dieresis
ENCODING 168
SWIDTH 567 0
DWIDTH 9 0
BBX 5 2 3 9
BITMAP
270530
691B40
ENDCHAR
STARTCHAR copyright
ENCODING 169
SWIDTH 456 0
DWIDTH 7 0
BBX 8 9 0 3
BITMAP
00179810
02B513B1
0C36BA58
693B2A1C
A594002C
95A31478
593B72C1
09845B30
00465000
ENDCHAR
STARTCHAR ordfeminine
ENCODING 170
SWIDTH 373 0
DWIDTH 6 0
BBX 8 9 -1 -1
BITMAP
00078000
00B6E300
0790A500
0E30D201
3F06E045
2FC8C870
03202200
8DEED700
54322100
ENDCHAR
STARTCHAR guillemotleft
ENCODING 171
SWIDTH 346 0
DWIDTH 6 0
BBX 7 8 -1 -1
BITMAP
00020110
00692C10
05C2D300
3E3C6000
6D2E3000
0B579000
02B0C100
00202100
ENDCHAR
STARTCHAR logicalnot
ENCODING 172
SWIDTH 512 0
DWIDTH 8 0
BBX 8 5 0 2
BITMAP
25666553
DCBAAACD
00000079
000000C5
00000040
ENDCHAR
STARTCHAR sfthyphen
ENCODING 173
SWIDTH 353 0
DWIDTH 6 0
BBX 7 2 -1 4
BITMAP
06899830
2A987720
ENDCHAR
STARTCHAR registered
ENCODING 174
SWIDTH 456 0
DWIDTH 7 0
BBX 8 9 0 3
BITMAP
00179810
02B533B1
0C4E7A58
690A2A1C
A53EB22C
9557B078
597268C1
09845B30
00465000
ENDCHAR
STARTCHAR macron
ENCODING 175
SWIDTH 567 0
DWIDTH 9 0
BBX 5 2 3 9
BITMAP
167620
4A9920
ENDCHAR
STARTCHAR degree
ENCODING 176
SWIDTH 144 0
DWIDTH 2 0
BBX 3 3 1 8
BITMAP
7900
CB10
2100
ENDCHAR
STARTCHAR twosuperior
ENCODING 178
SWIDTH 268 0
DWIDTH 4 0
BBX 5 8 0 4
BITMAP
008A70
0884D0
0647A0
001D20
01B500
1C5000
ACA900
576800
ENDCHAR
STARTCHAR threesuperior
ENCODING 179
SWIDTH 262 0
DWIDTH 4 0
BBX 5 8 0 4
BITMAP
02AC50
0C63C0
074880
018C10
028D20
120C30
9A6C00
298100
ENDCHAR
STARTCHAR acute
ENCODING 180
SWIDTH 567 0
DWIDTH 9 0
BBX 3 3 4 8
BITMAP
05A0
9D50
2000
ENDCHAR
STARTCHAR mu
ENCODING 181
SWIDTH 453 0
DWIDTH 7 0
BBX 10 10 -2 -4
BITMAP
003802A000
00C709C000
02F20D9000
06D00F3052
09D04F2280
0DEEA8DB10
2F21002000
6D00000000
B600000000
1000000000
ENDCHAR
STARTCHAR paragraph
ENCODING 182
SWIDTH 411 0
DWIDTH 7 0
BBX 8 13 0 -1
BITMAP
00015663
03CFFFFA
2EFFF4B0
7FFFB680
7FFF8940
1CFF4D10
005F2D00
003C4A00
00697600
00A5A300
00E2D000
04D49000
02120000
ENDCHAR
STARTCHAR periodcentered
ENCODING 183
SWIDTH 168 0
DWIDTH 3 0
BBX 3 3 0 4
BITMAP
0100
AF30
4300
ENDCHAR
STARTCHAR cedilla
ENCODING 184
SWIDTH 567 0
DWIDTH 9 0
BBX 3 5 4 -3
BITMAP
1600
8A20
38D0
5B50
2000
ENDCHAR
STARTCHAR onesuperior
ENCODING 185
SWIDTH 150 0
DWIDTH 2 0
BBX 3 8 0 4
BITMAP
02A0
07D0
0690
0950
0D10
2D00
6A00
4600
ENDCHAR
STARTCHAR ordmasculine
ENCODING 186
SWIDTH 319 0
DWIDTH 5 0
BBX 7 9 -1 -1
BITMAP
00361000
03D6C010
0BB0C580
1EBAE800
1D07C000
0D7D3000
02520000
9DEE8000
53221000
ENDCHAR
STARTCHAR guillemotright
ENCODING 187
SWIDTH 346 0
DWIDTH 6 0
BBX 6 8 -1 -1
BITMAP
020200
0B2860
05B2E1
00E4A9
02E4C7
1C4890
A65A00
202000
ENDCHAR
STARTCHAR onequarter
ENCODING 188
SWIDTH 579 0
DWIDTH 9 0
BBX 10 13 -1 -1
BITMAP
002A000057
007D0004D1
005A001D40
0096009800
00C204C001
01D01D22E8
05B0A61CC4
0365B0B6C1
002E29D8E2
00B80469C2
06D0000980
2E40000C70
2200000210
ENDCHAR
STARTCHAR onehalf
ENCODING 189
SWIDTH 603 0
DWIDTH 10 0
BBX 11 13 -1 -1
BITMAP
001A10004700
005E0003E200
004B000C5000
007700890000
00B303D12200
00E01D398E20
04C0984C0E30
0274C0033D00
001D3001C400
00A9001B6000
05E101C60000
1E6004FFF500
120000302100
ENDCHAR
STARTCHAR threequarters
ENCODING 190
SWIDTH 669 0
DWIDTH 11 0
BBX 11 13 0 -1
BITMAP
02AC50001910
0C63C000C700
07488007B000
018C103D1000
028D20C40100
120C38909E00
9A6C4D17CB00
2982D35C6700
000992F9C800
004D1075E700
01D50002F000
0AB00005D000
030000012000
ENDCHAR
STARTCHAR questiondown
ENCODING 191
SWIDTH 413 0
DWIDTH 7 0
BBX 8 13 -1 -1
BITMAP
000002B8
000003B5
00000160
000008C0
00000D80
00027F40
008E9400
09C10000
4F200000
AA000B60
C9001E90
5E98DB10
02663000
ENDCHAR
STARTCHAR Agrave
ENCODING 192
SWIDTH 552 0
DWIDTH 9 0
BBX 11 19 -2 -4
BITMAP
00000007B200
000000018D10
000000000100
00000006B700
0000009B5E00
000006C03D00
00001E306B00
00008C00A800
0000E600D600
0005F101F300
000AB004F100
002FCA9BE400
2BEF989EF500
00BD000C9000
02F9000E7000
07F5001F6000
0DE1002F7000
5B50001FA000
000000095000
ENDCHAR
STARTCHAR Aacute
ENCODING 193
SWIDTH 552 0
DWIDTH 9 0
BBX 11 19 -2 -4
BITMAP
000000002B10
00000005E700
000000011000
00000006B700
0000009B5E00
000006C03D00
00001E306B00
00008C00A800
0000E600D600
0005F101F300
000AB004F100
002FCA9BE400
2BEF989EF500
00BD000C9000
02F9000E7000
07F5001F6000
0DE1002F7000
5B50001FA000
000000095000
ENDCHAR
STARTCHAR Acircumflex
ENCODING 194
SWIDTH 552 0
DWIDTH 9 0
BBX 11 19 -2 -4
BITMAP
00000001AE20
0000001A4790
000000000000
00000006B700
0000009B5E00
000006C03D00
00001E306B00
00008C00A800
0000E600D600
0005F101F300
000AB004F100
002FCA9BE400
2BEF989EF500
00BD000C9000
02F9000E7000
07F5001F6000
0DE1002F7000
5B50001FA000
000000095000
ENDCHAR
STARTCHAR Atilde
ENCODING 195
SWIDTH 552 0
DWIDTH 9 0
BBX 12 18 -2 -4
BITMAP
000000177434
000000496AA2
00000006B700
0000009B5E00
000006C03D00
00001E306B00
00008C00A800
0000E600D600
0005F101F300
000AB004F100
002FCA9BE400
2BEF989EF500
00BD000C9000
02F9000E7000
07F5001F6000
0DE1002F7000
5B50001FA000
000000095000
ENDCHAR
STARTCHAR Adieresis
ENCODING 196
SWIDTH 552 0
DWIDTH 9 0
BBX 12 19 -2 -4
BITMAP
000000046162
0000000973A2
000000000000
00000006B700
0000009B5E00
000006C03D00
00001E306B00
00008C00A800
0000E600D600
0005F101F300
000AB004F100
002FCA9BE400
2BEF989EF500
00BD000C9000
02F9000E7000
07F5001F6000
0DE1002F7000
5B50001FA000
000000095000
ENDCHAR
STARTCHAR Aring
ENCODING 197
SWIDTH 552 0
DWIDTH 9 0
BBX 10 18 -2 -4
BITMAP
0000000055
00000002AB
00000006F9
0000009B5E
000006C03D
00001E306B
00008C00A8
0000E600D6
0005F101F3
000AB004F1
002FCA9BE4
2BEF989EF5
00BD000C90
02F9000E70
07F5001F60
0DE1002F70
5B50001FA0
0000000950
ENDCHAR
STARTCHAR AE
ENCODING 198
SWIDTH 869 0
DWIDTH 14 0
BBX 17 16 -2 -4
BITMAP
00000006B7028BA300
0000009B5E8E615E00
000006C03FF4003F10
00001E306FB0009D00
00008C00AF8005F600
0000E600DF80001000
0005F101FDE1000000
000AB004F2DED20000
002FCA9BFE63400000
2BEF989EF400000000
00BD000CD000003000
02F9000EC000028000
07F5001FE1001B2000
0DE1002FFC55C60000
5B50001FDBDB400000
000000095000000000
ENDCHAR
STARTCHAR Ccedilla
ENCODING 199
SWIDTH 548 0
DWIDTH 9 0
BBX 9 19 0 -7
BITMAP
00003AC900
0007E51C80
005F400AC0
02E9000DC0
08F2006F90
1EA0006B10
5F50000000
9F10000000
CE00000000
EC00000000
EB00000000
DB00005100
9E1003A000
2EB58D2000
03CE910000
00B7000000
005B900000
005B300000
0030000000
ENDCHAR
STARTCHAR Egrave
ENCODING 200
SWIDTH 523 0
DWIDTH 8 0
BBX 10 18 -1 -3
BITMAP
000000D600
0000004B70
0000000010
000016AB70
0003DA20C6
001EB000B8
008F3002F5
00BE001DC0
00BF000100
004F700000
0008FD8000
01BA341000
0BB0000000
4F50000120
7F40000910
5F80006900
0CF859C100
018CD80000
ENDCHAR
STARTCHAR Eacute
ENCODING 201
SWIDTH 523 0
DWIDTH 8 0
BBX 10 18 -1 -3
BITMAP
00000004B0
0000007D60
0000002000
000016AB70
0003DA20C6
001EB000B8
008F3002F5
00BE001DC0
00BF000100
004F700000
0008FD8000
01BA341000
0BB0000000
4F50000120
7F40000910
5F80006900
0CF859C100
018CD80000
ENDCHAR
STARTCHAR Ecircumflex
ENCODING 202
SWIDTH 523 0
DWIDTH 8 0
BBX 10 18 -1 -3
BITMAP
0000002BD0
000002A397
0000000000
000016AB70
0003DA20C6
001EB000B8
008F3002F5
00BE001DC0
00BF000100
004F700000
0008FD8000
01BA341000
0BB0000000
4F50000120
7F40000910
5F80006900
0CF859C100
018CD80000
ENDCHAR
STARTCHAR Edieresis
ENCODING 203
SWIDTH 523 0
DWIDTH 8 0
BBX 10 18 -1 -3
BITMAP
0000007235
000003B297
0000000000
000016AB70
0003DA20C6
001EB000B8
008F3002F5
00BE001DC0
00BF000100
004F700000
0008FD8000
01BA341000
0BB0000000
4F50000120
7F40000910
5F80006900
0CF859C100
018CD80000
ENDCHAR
STARTCHAR Igrave
ENCODING 204
SWIDTH 537 0
DWIDTH 9 0
BBX 11 18 -2 -3
BITMAP
00000009A100
000000029C00
000000000100
00000005A600
0000008E8C00
000004F56B00
00000AE09A00
00000CA0C800
00000C81F600
00000A85F200
00000499D000
0000034DC510
005BFCBF8610
08F7107D0000
1F8000C70000
1F9003E10000
08F40B600000
006CC7000000
ENDCHAR
STARTCHAR Iacute
ENCODING 205
SWIDTH 537 0
DWIDTH 9 0
BBX 11 18 -2 -3
BITMAP
000000001950
00000002DA10
000000002000
00000005A600
0000008E8C00
000004F56B00
00000AE09A00
00000CA0C800
00000C81F600
00000A85F200
00000499D000
0000034DC510
005BFCBF8610
08F7107D0000
1F8000C70000
1F9003E10000
08F40B600000
006CC7000000
ENDCHAR
STARTCHAR Icircumflex
ENCODING 206
SWIDTH 537 0
DWIDTH 9 0
BBX 12 18 -2 -3
BITMAP
000000005D80
0000000692C2
000000000000
00000005A600
0000008E8C00
000004F56B00
00000AE09A00
00000CA0C800
00000C81F600
00000A85F200
00000499D000
0000034DC510
005BFCBF8610
08F7107D0000
1F8000C70000
1F9003E10000
08F40B600000
006CC7000000
ENDCHAR
STARTCHAR Idieresis
ENCODING 207
SWIDTH 537 0
DWIDTH 9 0
BBX 12 18 -2 -3
BITMAP
000000046162
0000000973A2
000000000000
00000005A600
0000008E8C00
000004F56B00
00000AE09A00
00000CA0C800
00000C81F600
00000A85F200
00000499D000
0000034DC510
005BFCBF8610
08F7107D0000
1F8000C70000
1F9003E10000
08F40B600000
006CC7000000
ENDCHAR
STARTCHAR Eth
ENCODING 208
SWIDTH 632 0
DWIDTH 10 0
BBX 11 15 -1 -3
BITMAP
00028BA60000
003EC87DC100
00243101CB00
0006F3005F30
0009F0002F60
000BC0001F80
001E91003F80
3FFFFE205F50
226F10009F20
009C0000EA00
00D80006F300
02F4001E9000
07E001CB1000
0DC25DA10000
05CDB4000000
ENDCHAR
STARTCHAR Ntilde
ENCODING 209
SWIDTH 541 0
DWIDTH 9 0
BBX 12 17 -1 -3
BITMAP
000006743400
0000496AB300
000450002A90
000EC000CCC1
003FE004F2C0
006DF008C5A0
00A8F13CDC10
00D3F13F8100
02F0E11F3000
06C0D23F0000
0990D36D0000
0D70C49A0000
2F40B6C70000
5F3099F40000
8F207EF00000
9F203FB00000
5B200A500000
ENDCHAR
STARTCHAR Ograve
ENCODING 210
SWIDTH 567 0
DWIDTH 9 0
BBX 9 18 0 -3
BITMAP
00000D6000
000004B700
0000000100
0001AD9200
001CE7AB00
009D105F00
03F5003F30
09D0002F30
1E70002F30
4F30003F30
8E00006F10
AC00009E00
CB0000CA00
DA0002F500
CA0008D000
9C002E5000
4F21C90000
07EE700000
ENDCHAR
STARTCHAR Oacute
ENCODING 211
SWIDTH 567 0
DWIDTH 9 0
BBX 9 18 0 -3
BITMAP
0000007700
00000BC300
0000020000
0001AD9200
001CE7AB00
009D105F00
03F5003F30
09D0002F30
1E70002F30
4F30003F30
8E00006F10
AC00009E00
CB0000CA00
DA0002F500
CA0008D000
9C002E5000
4F21C90000
07EE700000
ENDCHAR
STARTCHAR Ocircumflex
ENCODING 212
SWIDTH 567 0
DWIDTH 9 0
BBX 9 18 0 -3
BITMAP
000007E600
0000783C10
0000000000
0001AD9200
001CE7AB00
009D105F00
03F5003F30
09D0002F30
1E70002F30
4F30003F30
8E00006F10
AC00009E00
CB0000CA00
DA0002F500
CA0008D000
9C002E5000
4F21C90000
07EE700000
ENDCHAR
STARTCHAR Otilde
ENCODING 213
SWIDTH 567 0
DWIDTH 9 0
BBX 9 18 0 -3
BITMAP
0000674340
000496AB30
0000000000
0001AD9200
001CE7AB00
009D105F00
03F5003F30
09D0002F30
1E70002F30
4F30003F30
8E00006F10
AC00009E00
CB0000CA00
DA0002F500
CA0008D000
9C002E5000
4F21C90000
07EE700000
ENDCHAR
STARTCHAR Odieresis
ENCODING 214
SWIDTH 567 0
DWIDTH 9 0
BBX 9 18 0 -3
BITMAP
0000361620
0000973A20
0000000000
0001AD9200
001CE7AB00
009D105F00
03F5003F30
09D0002F30
1E70002F30
4F30003F30
8E00006F10
AC00009E00
CB0000CA00
DA0002F500
CA0008D000
9C002E5000
4F21C90000
07EE700000
ENDCHAR
STARTCHAR multiply
ENCODING 215
SWIDTH 281 0
DWIDTH 5 0
BBX 6 7 -1 2
BITMAP
012001
03F17C
00BAD1
008D20
03DD00
2C3C40
230230
ENDCHAR
STARTCHAR Oslash
ENCODING 216
SWIDTH 597 0
DWIDTH 10 0
BBX 11 17 -1 -4
BITMAP
000000000110
000008DA7E40
0000AEA8F900
0006E206F400
001E801EF600
006F108DE700
00CA02E4E600
01F609B0F600
05F23F22F400
07F0B905F200
09E4E209D000
0ADD800E8000
09FE105F2000
06F800D80000
08F50AC00000
2FCEE9100000
240000000000
ENDCHAR
STARTCHAR Ugrave
ENCODING 217
SWIDTH 574 0
DWIDTH 9 0
BBX 10 17 0 -3
BITMAP
00000D6000
000004B700
0005400176
008F4004F7
00DD0008F2
02F8000CD0
06F3001F80
0AD0004F30
0E90008E00
2F5000BA00
5F1000E600
8D0004F300
AA0008F100
C9001EE000
CA008ED000
9E46D7E000
2BDA12B200
ENDCHAR
STARTCHAR Uacute
ENCODING 218
SWIDTH 574 0
DWIDTH 9 0
BBX 10 17 0 -3
BITMAP
0000001950
000002DA10
0005402076
008F4004F7
00DD0008F2
02F8000CD0
06F3001F80
0AD0004F30
0E90008E00
2F5000BA00
5F1000E600
8D0004F300
AA0008F100
C9001EE000
CA008ED000
9E46D7E000
2BDA12B200
ENDCHAR
STARTCHAR Ucircumflex
ENCODING 219
SWIDTH 574 0
DWIDTH 9 0
BBX 10 17 0 -3
BITMAP
000002BD00
00002A3970
0005400076
008F4004F7
00DD0008F2
02F8000CD0
06F3001F80
0AD0004F30
0E90008E00
2F5000BA00
5F1000E600
8D0004F300
AA0008F100
C9001EE000
CA008ED000
9E46D7E000
2BDA12B200
ENDCHAR
STARTCHAR Udieresis
ENCODING 220
SWIDTH 574 0
DWIDTH 9 0
BBX 10 17 0 -3
BITMAP
0000171540
00005A1A50
0005400076
008F4004F7
00DD0008F2
02F8000CD0
06F3001F80
0AD0004F30
0E90008E00
2F5000BA00
5F1000E600
8D0004F300
AA0008F100
C9001EE000
CA008ED000
9E46D7E000
2BDA12B200
ENDCHAR
STARTCHAR Yacute
ENCODING 221
SWIDTH 532 0
DWIDTH 9 0
BBX 10 17 0 -3
BITMAP
0000005900
000009D400
00590204A1
00EB000CC0
04F5000F80
08F1003F40
0CB0007E00
0F7000BB00
3F3001F700
5F0008F300
7E003DE000
5F76D7B000
08B9297000
00001E2000
24009A0000
BF9BD10000
5DD9100000
ENDCHAR
STARTCHAR Thorn
ENCODING 222
SWIDTH 569 0
DWIDTH 9 0
BBX 10 15 -1 -3
BITMAP
0001720000
0008E00000
000CB00000
001FDCDD50
03DF5008F3
07EE0000E8
00BA0000E9
00E60002F6
03F20008E1
07E0004F60
0AB007E600
0ECADA2000
2F82000000
6F40000000
7B10000000
ENDCHAR
STARTCHAR germandbls
ENCODING 223
SWIDTH 495 0
DWIDTH 8 0
BBX 10 19 -2 -8
BITMAP
0000038500
00005E7D40
0001E50D60
0006E04E20
000B80B700
001F30E100
004D00A800
0089003F30
39D40009C0
03F80863F1
06AA7BDA60
0A61E27400
0E30B50000
2E00B60000
6B01E30000
A808C00000
D67F300000
DFE4000000
3720000000
ENDCHAR
STARTCHAR agrave
ENCODING 224
SWIDTH 435 0
DWIDTH 7 0
BBX 10 11 -1 -1
BITMAP
000B800000
0003A90000
0000010000
0003820000
005DC90000
03E23F0000
0A904C0062
1F40990380
3F46E72A00
1EF96DB100
0210030000
ENDCHAR
STARTCHAR aacute
ENCODING 225
SWIDTH 435 0
DWIDTH 7 0
BBX 10 11 -1 -1
BITMAP
00003B1000
0005E70000
0001100000
0003820000
005DC90000
03E23F0000
0A904C0062
1F40990380
3F46E72A00
1EF96DB100
0210030000
ENDCHAR
STARTCHAR acircumflex
ENCODING 226
SWIDTH 435 0
DWIDTH 7 0
BBX 10 10 -1 -1
BITMAP
0002CD0000
002A296000
0003820000
005DC90000
03E23F0000
0A904C0062
1F40990380
3F46E72A00
1EF96DB100
0210030000
ENDCHAR
STARTCHAR atilde
ENCODING 227
SWIDTH 435 0
DWIDTH 7 0
BBX 10 10 -1 -1
BITMAP
0027636100
00877B9000
0003820000
005DC90000
03E23F0000
0A904C0062
1F40990380
3F46E72A00
1EF96DB100
0210030000
ENDCHAR
STARTCHAR adieresis
ENCODING 228
SWIDTH 435 0
DWIDTH 7 0
BBX 10 10 -1 -1
BITMAP
0005426100
000B559100
0003820000
005DC90000
03E23F0000
0A904C0062
1F40990380
3F46E72A00
1EF96DB100
0210030000
ENDCHAR
STARTCHAR aring
ENCODING 229
SWIDTH 435 0
DWIDTH 7 0
BBX 10 10 -1 -1
BITMAP
0002950000
0006980000
0003A20000
005DC90000
03E23F0000
0A904C0062
1F40990380
3F46E72A00
1EF96DB100
0210030000
ENDCHAR
STARTCHAR ae
ENCODING 230
SWIDTH 594 0
DWIDTH 10 0
BBX 12 8 -1 -1
BITMAP
000383167000
005DCAC8F100
03E25F65B000
0A906F6B1016
1F409F8001A2
3F45EE002B30
1EFB2ECAA200
022001530000
ENDCHAR
STARTCHAR ccedilla
ENCODING 231
SWIDTH 363 0
DWIDTH 6 0
BBX 8 11 -1 -4
BITMAP
00168100
01BAA700
08C1F400
0E401008
2F100075
1F300870
09E9B600
00C71000
00CC4000
001B6000
01840000
ENDCHAR
STARTCHAR egrave
ENCODING 232
SWIDTH 372 0
DWIDTH 6 0
BBX 9 11 -1 -1
BITMAP
001D600000
0004C70000
0000010000
0004820000
007AC80000
04D1D30000
0C9B600610
1FC3005700
0F60078000
08E9B60000
0045100000
ENDCHAR
STARTCHAR eacute
ENCODING 233
SWIDTH 372 0
DWIDTH 6 0
BBX 9 11 -1 -1
BITMAP
00004B0000
0007D50000
0002000000
0004820000
007AC80000
04D1D30000
0C9B600610
1FC3005700
0F60078000
08E9B60000
0045100000
ENDCHAR
STARTCHAR ecircumflex
ENCODING 234
SWIDTH 372 0
DWIDTH 6 0
BBX 9 10 -1 -1
BITMAP
0003DB0000
004A2B4000
0004820000
007AC80000
04D1D30000
0C9B600610
1FC3005700
0F60078000
08E9B60000
0045100000
ENDCHAR
STARTCHAR edieresis
ENCODING 235
SWIDTH 372 0
DWIDTH 6 0
BBX 9 10 -1 -1
BITMAP
0017154000
005A1A5000
0004820000
007AC80000
04D1D30000
0C9B600610
1FC3005700
0F60078000
08E9B60000
0045100000
ENDCHAR
STARTCHAR igrave
ENCODING 236
SWIDTH 274 0
DWIDTH 4 0
BBX 6 11 0 -1
BITMAP
8A1000
19C000
001000
002000
0D7000
4F2000
7D0026
9801B1
A62C20
6EC200
020000
ENDCHAR
STARTCHAR iacute
ENCODING 237
SWIDTH 274 0
DWIDTH 4 0
BBX 6 11 0 -1
BITMAP
000770
01BB30
002000
002000
0D7000
4F2000
7D0026
9801B1
A62C20
6EC200
020000
ENDCHAR
STARTCHAR icircumflex
ENCODING 238
SWIDTH 274 0
DWIDTH 4 0
BBX 6 10 0 -1
BITMAP
05D900
592C30
002000
0D7000
4F2000
7D0026
9801B1
A62C20
6EC200
020000
ENDCHAR
STARTCHAR idieresis
ENCODING 239
SWIDTH 274 0
DWIDTH 4 0
BBX 6 10 0 -1
BITMAP
270630
791B40
002000
0D7000
4F2000
7D0026
9801B1
A62C20
6EC200
020000
ENDCHAR
STARTCHAR eth
ENCODING 240
SWIDTH 393 0
DWIDTH 6 0
BBX 9 12 -1 -1
BITMAP
0000400000
0000660100
00049EE800
001C7E0000
00142E1000
00DBCF1010
08E05F0480
0DE45EB700
1F4CFB2000
0F11E40000
0ABD800000
0042000000
ENDCHAR
STARTCHAR ntilde
ENCODING 241
SWIDTH 461 0
DWIDTH 7 0
BBX 10 10 -1 -1
BITMAP
0027734200
00687AA100
0000020000
00D8DF6000
03FC2D8000
06E20E5025
0A903F10A1
0D507C0A30
2F208EC500
1200152000
ENDCHAR
STARTCHAR ograve
ENCODING 242
SWIDTH 393 0
DWIDTH 6 0
BBX 9 11 -1 -1
BITMAP
001D600000
0004C70000
0000010000
0014200000
00DBC40010
08E05B0480
0DE45DA700
1F4CFB2000
0F11E30000
0ABD700000
0042000000
ENDCHAR
STARTCHAR oacute
ENCODING 243
SWIDTH 393 0
DWIDTH 6 0
BBX 9 11 -1 -1
BITMAP
00004B0000
0007D50000
0002000000
0014200000
00DBC40010
08E05B0480
0DE45DA700
1F4CFB2000
0F11E30000
0ABD700000
0042000000
ENDCHAR
STARTCHAR ocircumflex
ENCODING 244
SWIDTH 393 0
DWIDTH 6 0
BBX 9 10 -1 -1
BITMAP
0009E40000
00965B0000
0014200000
00DBC40010
08E05B0480
0DE45DA700
1F4CFB2000
0F11E30000
0ABD700000
0042000000
ENDCHAR
STARTCHAR otilde
ENCODING 245
SWIDTH 393 0
DWIDTH 6 0
BBX 9 10 -1 -1
BITMAP
0067435000
02A69B4000
0014200000
00DBC40010
08E05B0480
0DE45DA700
1F4CFB2000
0F11E30000
0ABD700000
0042000000
ENDCHAR
STARTCHAR odieresis
ENCODING 246
SWIDTH 393 0
DWIDTH 6 0
BBX 9 10 -1 -1
BITMAP
0037062000
00782A3000
0014200000
00DBC40010
08E05B0480
0DE45DA700
1F4CFB2000
0F11E30000
0ABD700000
0042000000
ENDCHAR
STARTCHAR divide
ENCODING 247
SWIDTH 350 0
DWIDTH 6 0
BBX 6 6 0 3
BITMAP
000200
007C00
255552
ECBBB4
015000
05B100
ENDCHAR
STARTCHAR oslash
ENCODING 248
SWIDTH 406 0
DWIDTH 7 0
BBX 9 9 -1 -2
BITMAP
0004388000
00ACBD1010
05F22E0390
0BE73F9800
0D5BED3000
0C40C60000
0CCCA00000
7D43000000
1000000000
ENDCHAR
STARTCHAR ugrave
ENCODING 249
SWIDTH 468 0
DWIDTH 8 0
BBX 9 10 0 -1
BITMAP
00B8000000
003A900000
0000100000
1C408A0000
7E00E90000
B904F50180
E505D00920
F509C09500
9ED7ED5000
0220110000
ENDCHAR
STARTCHAR uacute
ENCODING 250
SWIDTH 468 0
DWIDTH 8 0
BBX 9 10 0 -1
BITMAP
0001B30000
003D910000
0011000000
1C408A0000
7E00E90000
B904F50180
E505D00920
F509C09500
9ED7ED5000
0220110000
ENDCHAR
STARTCHAR ucircumflex
ENCODING 251
SWIDTH 468 0
DWIDTH 8 0
BBX 9 10 0 -1
BITMAP
001BE10000
01A4780000
0000000000
1C408A0000
7E00E90000
B904F50180
E505D00920
F509C09500
9ED7ED5000
0220110000
ENDCHAR
STARTCHAR udieresis
ENCODING 252
SWIDTH 468 0
DWIDTH 8 0
BBX 9 10 0 -1
BITMAP
0054260000
01B4690000
0000000000
1C408A0000
7E00E90000
B904F50180
E505D00920
F509C09500
9ED7ED5000
0220110000
ENDCHAR
STARTCHAR yacute
ENCODING 253
SWIDTH 406 0
DWIDTH 7 0
BBX 7 16 -1 -7
BITMAP
00000870
0001CB20
00102010
06F10BB0
08D00C90
0D802F40
1F309E00
3F15FA00
1ECDC700
0261E300
0003F000
0007C000
000B9000
000E6000
003F3000
002A0000
ENDCHAR
STARTCHAR thorn
ENCODING 254
SWIDTH 451 0
DWIDTH 7 0
BBX 11 18 -2 -7
BITMAP
0000BA000000
0000E9000000
0002F4000000
0005E0000000
0009A0200000
000C8CF60000
001FC2890000
004E20980330
008901E32A00
00CC7BA2B100
01FEFFCB2000
04D362300000
08A000000000
0C7000000000
1F4000000000
4F1000000000
8D0000000000
570000000000
ENDCHAR
STARTCHAR ydieresis
ENCODING 255
SWIDTH 406 0
DWIDTH 7 0
BBX 7 16 -1 -7
BITMAP
00171540
005A1A50
00100010
06F10BB0
08D00C90
0D802F40
1F309E00
3F15FA00
1ECDC700
0261E300
0003F000
0007C000
000B9000
000E6000
003F3000
002A0000
ENDCHAR
STARTCHAR dotlessi
ENCODING 305
SWIDTH 274 0
DWIDTH 4 0
BBX 6 8 0 -1
BITMAP
002000
0D7000
4F2000
7D0026
9801B1
A62C20
6EC200
020000
ENDCHAR
STARTCHAR Lslash
ENCODING 321
SWIDTH 492 0
DWIDTH 8 0
BBX 11 16 -2 -4
BITMAP
000000018A20
0000000CCD70
0000006F2D50
000000CB6D10
000000FCE400
004659FD3000
0018ACE00000
00000AB10000
00049EFE3000
001DBF300000
00008B000000
0001E4000000
2CFED0000000
8D9CEC549300
286019EFB000
000000020000
ENDCHAR
STARTCHAR lslash
ENCODING 322
SWIDTH 218 0
DWIDTH 4 0
BBX 6 12 -1 -1
BITMAP
001D80
002F60
004F20
008E00
02CDA4
BFFA61
64F200
07D000
0B9000
0E5000
2F2000
030000
ENDCHAR
STARTCHAR OE
ENCODING 338
SWIDTH 918 0
DWIDTH 15 0
BBX 15 15 0 -3
BITMAP
0001AD920039B910
001CE7AB09D408B0
009D105FAF2006D0
03F5003FF8000CA0
09D0002FF5008F30
1E70002FF5000100
4F30003FEC000000
8E00006F5FDC0000
AC00009FD5330000
CB0000CE20000000
DA0002FA00000300
CA0008F900004600
9C002EFD0002C100
4F21C97FA56D3000
07EE8006CDA20000
ENDCHAR
STARTCHAR oe
ENCODING 339
SWIDTH 583 0
DWIDTH 9 0
BBX 12 8 -1 -1
BITMAP
001420167000
00DBC6C8F200
08F05F75C000
0DE86F7D2016
1F3BFF8101A2
0F11EE002A30
0ABD8DCAA200
004201530000
ENDCHAR
STARTCHAR Scaron
ENCODING 352
SWIDTH 474 0
DWIDTH 8 0
BBX 10 18 -1 -3
BITMAP
000001C488
0000005E70
0000000000
00006BCA20
000BD40AB0
006E2007D0
00CA000BB0
00CC001C40
007F500000
001DE30000
0002ED1000
00005F6000
00000CA000
021009A000
7F10098000
AF001E3000
6F71AA0000
09FE900000
ENDCHAR
STARTCHAR scaron
ENCODING 353
SWIDTH 351 0
DWIDTH 6 0
BBX 6 11 0 -1
BITMAP
04B2A4
00AC30
000000
02D900
09F300
0AD500
657B00
402F30
4A0C50
6F8A00
065000
ENDCHAR
STARTCHAR Ydieresis
ENCODING 376
SWIDTH 532 0
DWIDTH 9 0
BBX 10 17 0 -3
BITMAP
0000361620
0000973A20
00590004A1
00EB000CC0
04F5000F80
08F1003F40
0CB0007E00
0F7000BB00
3F3001F700
5F0008F300
7E003DE000
5F76D7B000
08B9297000
00001E2000
24009A0000
BF9BD10000
5DD9100000
ENDCHAR
STARTCHAR Zcaron
ENCODING 381
SWIDTH 455 0
DWIDTH 7 0
BBX 11 18 -2 -3
BITMAP
000000884A20
0000001DA100
000000000000
000279998600
0009ECA9CD00
00031000CB00
00000005F400
0000001EA000
000000BD1000
000008E30000
00005F500000
0003E8000000
001DA0000000
00AD10000000
04F300000000
0C8012100000
3FCEFFFC0000
1B8668A30000
ENDCHAR
STARTCHAR zcaron
ENCODING 382
SWIDTH 349 0
DWIDTH 6 0
BBX 9 17 -2 -7
BITMAP
0002C29600
00008D5000
0000000000
0003552000
00CEBE8000
00401E2000
0000990000
0006D10360
005FCC4900
00672F8000
0019CD0000
03D5980000
2D31E30000
A707C00000
E22E500000
F6BB000000
8EA1000000
ENDCHAR
STARTCHAR circumflex
ENCODING 710
SWIDTH 567 0
DWIDTH 9 0
BBX 5 2 3 9
BITMAP
03CC00
3A2B50
ENDCHAR
STARTCHAR caron
ENCODING 711
SWIDTH 567 0
DWIDTH 9 0
BBX 5 2 3 9
BITMAP
5B2B30
0BC300
ENDCHAR
STARTCHAR breve
ENCODING 728
SWIDTH 567 0
DWIDTH 9 0
BBX 5 3 3 8
BITMAP
540540
6D9D20
045100
ENDCHAR
STARTCHAR dotaccent
ENCODING 729
SWIDTH 567 0
DWIDTH 9 0
BBX 3 2 4 9
BITMAP
1720
3A20
ENDCHAR
STARTCHAR ring
ENCODING 730
SWIDTH 567 0
DWIDTH 9 0
BBX 3 3 4 8
BITMAP
2940
8960
0200
ENDCHAR
STARTCHAR ogonek
ENCODING 731
SWIDTH 567 0
DWIDTH 9 0
BBX 5 3 3 -2
BITMAP
090000
6C1530
2BA400
ENDCHAR
STARTCHAR tilde
ENCODING 732
SWIDTH 567 0
DWIDTH 9 0
BBX 5 2 3 9
BITMAP
486260
A68B70
ENDCHAR
STARTCHAR hungarumlaut
ENCODING 733
SWIDTH 567 0
DWIDTH 9 0
BBX 7 3 2 8
BITMAP
00862B10
1CB7E700
02011000
ENDCHAR
STARTCHAR endash
ENCODING 8211
SWIDTH 353 0
DWIDTH 6 0
BBX 7 2 -1 4
BITMAP
06899830
2A987720
ENDCHAR
STARTCHAR emdash
ENCODING 8212
SWIDTH 508 0
DWIDTH 8 0
BBX 9 2 -1 4
BITMAP
0799AA9850
2A99889A80
ENDCHAR
STARTCHAR quoteleft
ENCODING 8216
SWIDTH 155 0
DWIDTH 2 0
BBX 3 4 0 7
BITMAP
0440
1D10
4F80
2920
ENDCHAR
STARTCHAR quoteright
ENCODING 8217
SWIDTH 154 0
DWIDTH 2 0
BBX 2 4 1 7
BITMAP
89
DC
66
60
ENDCHAR
STARTCHAR quotesinglbase
ENCODING 8218
SWIDTH 188 0
DWIDTH 3 0
BBX 3 4 -1 -2
BITMAP
2810
8F40
1D10
5400
ENDCHAR
STARTCHAR quotedblleft
ENCODING 8220
SWIDTH 289 0
DWIDTH 5 0
BBX 5 4 0 7
BITMAP
044260
1D1C20
4FAFA0
292930
ENDCHAR
STARTCHAR quotedblright
ENCODING 8221
SWIDTH 288 0
DWIDTH 5 0
BBX 4 4 1 7
BITMAP
9A7C
DCBE
7658
5050
ENDCHAR
STARTCHAR quotedblbase
ENCODING 8222
SWIDTH 323 0
DWIDTH 5 0
BBX 5 4 -1 -2
BITMAP
282830
8FAF60
1D1C20
543600
ENDCHAR
STARTCHAR bullet
ENCODING 8226
SWIDTH 180 0
DWIDTH 3 0
BBX 4 5 -1 2
BITMAP
0030
0BF5
1FF6
1FE1
0210
ENDCHAR
STARTCHAR ellipsis
ENCODING 8230
SWIDTH 614 0
DWIDTH 10 0
BBX 9 3 -1 -1
BITMAP
0210110020
5F82EB0DE0
1401510420
ENDCHAR
STARTCHAR perthousand
ENCODING 8240
SWIDTH 851 0
DWIDTH 14 0
BBX 13 13 0 -1
BITMAP
00770001920000
09A8800B700000
2E04B07B000000
5A0793D1000000
4B1D3C50000000
1BD68900000000
0003D142002400
001D49BC33DA90
00994D087C50E0
04E1870A7E02D0
1D50961E3D0880
9B004DD60CBC10
30000220013000
ENDCHAR
STARTCHAR guilsinglleft
ENCODING 8249
SWIDTH 202 0
DWIDTH 3 0
BBX 4 8 -1 -1
BITMAP
0002
0069
05C1
3E20
6D00
0C40
03B0
0020
ENDCHAR
STARTCHAR guilsinglright
ENCODING 8250
SWIDTH 202 0
DWIDTH 3 0
BBX 4 8 -1 -1
BITMAP
0200
0B20
05B0
00E4
02E3
1C40
A600
2000
ENDCHAR
STARTCHAR fraction
ENCODING 8260
SWIDTH 600 0
DWIDTH 10 0
BBX 10 13 0 -1
BITMAP
0000000066
00000005D1
0000001D30
000000B700
000006B000
00002D1000
0000B50000
0007A00000
002E100000
00C6000000
08C0000000
3F30000000
2200000000
ENDCHAR
STARTCHAR Euro
ENCODING 8364
SWIDTH 334 0
DWIDTH 5 0
BBX 7 10 -1 1
BITMAP
00003720
0006C5C0
003E2050
00B70000
2CFCB600
2AD66000
6CA65000
09600000
05805800
00798000
ENDCHAR
STARTCHAR minus
ENCODING 8722
SWIDTH 353 0
DWIDTH 6 0
BBX 7 2 -1 4
BITMAP
06899830
2A987720
ENDCHAR
STARTCHAR fi
ENCODING 64257
SWIDTH 549 0
DWIDTH 9 0
BBX 12 20 -2 -8
BITMAP
000002000000
0000CE000200
0000BD006D00
0000C9003400
0000E5000000
0003E1002000
0007A007E000
000C758E9000
006FB52F4009
00FA003E0086
00CD204C0880
00E8D11DD700
03D0A8011000
07905C000000
0B604C000000
0E3099000000
3E02F3000000
6C2D90000000
7FFA00000000
174000000000
ENDCHAR
STARTCHAR fl
ENCODING 64258
SWIDTH 516 0
DWIDTH 8 0
BBX 11 20 -2 -8
BITMAP
000002000000
0000CE003E40
0000BD005F30
0000C9008E00
0000E500BA00
0003E100F600
0007A003F200
000C758BD000
006FB51B9000
00FA000E6000
00CD203F2000
00E8D16D0000
03D0A8130000
07905C000000
0B604C000000
0E3099000000
3E02F3000000
6C2D90000000
7FFA00000000
174000000000
ENDCHAR
STARTCHAR .notdef
ENCODING -1
SWIDTH 280 0
DWIDTH 4 0
BBX 1 1 0 0
BITMAP
00
ENDCHAR
ENDFONT
